<svg xmlns="http://www.w3.org/2000/svg" width="19" height="20" viewBox="0 0 19 20" fill="none">
  <path d="M16.3248 7.46875C16.3248 7.46875 15.7818 14.2037 15.4668 17.0407C15.3168 18.3957 14.4798 19.1898 13.1088 19.2148C10.4998 19.2618 7.88779 19.2648 5.27979 19.2098C3.96079 19.1828 3.13779 18.3788 2.99079 17.0478C2.67379 14.1858 2.13379 7.46875 2.13379 7.46875" stroke="#9E9DA8" stroke-width="1.5" stroke-linecap="round" stroke-linejoin="round"/>
  <path d="M17.708 4.24023H0.75" stroke="#9E9DA8" stroke-width="1.5" stroke-linecap="round" stroke-linejoin="round"/>
  <path d="M14.4403 4.23998C13.6553 4.23998 12.9793 3.68498 12.8253 2.91598L12.5823 1.69998C12.4323 1.13898 11.9243 0.750977 11.3453 0.750977H7.11233C6.53333 0.750977 6.02533 1.13898 5.87533 1.69998L5.63233 2.91598C5.47833 3.68498 4.80233 4.23998 4.01733 4.23998" stroke="#9E9DA8" stroke-width="1.5" stroke-linecap="round" stroke-linejoin="round"/>
</svg>