<svg xmlns="http://www.w3.org/2000/svg" width="147" height="137" viewBox="0 0 147 137" fill="none">
  <g opacity="0.2">
    <path d="M128.567 114.166C128.567 111.014 125.829 108.458 122.452 108.458H24.618C21.241 108.458 18.5034 111.014 18.5034 114.166C18.5034 117.319 21.241 119.875 24.618 119.875H122.452C125.829 119.875 128.567 117.319 128.567 114.166Z" fill="#0071DC"/>
    <path d="M128.567 114.166C128.567 111.014 125.829 108.458 122.452 108.458H24.618C21.241 108.458 18.5034 111.014 18.5034 114.166C18.5034 117.319 21.241 119.875 24.618 119.875H122.452C125.829 119.875 128.567 117.319 128.567 114.166Z" fill="white" fill-opacity="0.7"/>
  </g>
  <g opacity="0.2">
    <path d="M48.5241 17.125L39.0208 19.2656L65.2152 61.6212L35.4012 69.0788L28.6517 58.5104L10.0361 55.8766C9.52934 55.805 9.15865 56.3121 9.41488 56.7266L27.0291 85.208C27.2045 85.4914 27.4029 85.7566 27.6211 86.002C29.1484 87.7197 31.6459 88.4723 34.0062 87.8421L41.5357 85.8314L41.5333 85.8242L130.942 63.459C135.987 62.1971 138.981 57.3562 137.629 52.6468C136.277 47.9372 131.092 45.1424 126.047 46.4042L91.0556 55.1573L48.5241 17.125Z" fill="#0071DC"/>
    <path d="M48.5241 17.125L39.0208 19.2656L65.2152 61.6212L35.4012 69.0788L28.6517 58.5104L10.0361 55.8766C9.52934 55.805 9.15865 56.3121 9.41488 56.7266L27.0291 85.208C27.2045 85.4914 27.4029 85.7566 27.6211 86.002C29.1484 87.7197 31.6459 88.4723 34.0062 87.8421L41.5357 85.8314L41.5333 85.8242L130.942 63.459C135.987 62.1971 138.981 57.3562 137.629 52.6468C136.277 47.9372 131.092 45.1424 126.047 46.4042L91.0556 55.1573L48.5241 17.125Z" fill="white" fill-opacity="0.7"/>
  </g>
</svg>